<svg version="1.1" id="Lager_1" xmlns="http://www.w3.org/2000/svg" xmlns:xlink="http://www.w3.org/1999/xlink" x="0px" y="0px"
	 viewBox="235 133 100 100" xml:space="preserve" fill="#fff">
	<g>
		<path d="M254,195.2l-2.2-1.4c-11.6-7.3-26-16.5-26.2-28.4c-0.1-5.7,2.3-11.6,6.5-16c4.1-4.2,9.5-6.6,15.2-6.7
			c4.3-0.1,8.2,1.5,11.3,4.5c3.5,3.5,5.5,8.8,5.4,14.1c-0.1,4.1-1.5,9.7-4.3,12.9c-0.8,0.9-0.6,1.6-0.4,2c0.5,0.8,1.7,0.7,2.1,0.6
			c5.5-0.8,9.9-8.2,9.9-16.8c0-10-6.2-21.7-23.6-21.8c-7.9-0.1-15.7,3.1-21.3,8.6c-5.1,5.1-8,11.7-8,18.7
			c0,15.4,14.5,24.5,26.2,31.9l5,3.2c9.1,5.9,13.2,10.1,10.5,16.3c-2.2,5-10.7,6.1-17.4,5.5c-6.7-0.6-15-2.9-16.6-10.6
			c-0.3-1.5-1.1-1.6-1.5-1.6c-1.3,0.1-1.9,2-2.1,3.6c-0.1,1.1-0.2,5.1,3.1,8.8c3.3,3.8,8.7,5.9,16,6.2c8,0.4,18.8-1.9,23.1-10
			C267.9,212.5,269.2,204.8,254,195.2z"/>
		<path d="M346.3,204.5c-3.3-7.4-4-12.7-1.9-14.6l0,0c0.5-0.3,0.7-0.8,0.8-1.3c0-0.3,0-0.7-0.5-1.2c-0.8-0.8-1.7-1.4-2.7-1.4
			c-0.9,0-1.8,0.3-2.6,1.1c-2.9,2.7-5.2,7.9-7,15.8c-0.1-0.1-0.1-0.1-0.2-0.2c-0.6-0.2-1,0.2-1.2,0.4c-0.8,0.8-1,2-1,3.1
			c0,1,0.2,1.8,0.3,2.2c0.2,0.7,0.4,1.3,0.5,1.9c-0.1,0.2-0.2,0.7-0.2,0.7c-0.1,0.4-0.3,0.9-0.4,1.3c-1.2,2.3-2.6,3.7-3.8,4.3
			c-0.8,0.5-1.6,0.6-2.2,0.4c-1.4-0.4-3.2-3.5-4-8.2c4.2-2.3,7.1-6.1,8-10.5c0.2-0.9,0.3-1.8,0.3-2.6c0-2.9-0.9-5.6-2.7-7.6
			c-1.4-1.6-3-2.4-4.6-2.5c-1.6,0-3.2,0.7-4.5,2.1c-0.8,0.9-2.5,3-3.9,6.8c0.2-12.6,1.4-24.9,2.6-32.9l0,0.1c0.2-0.6,0-1-0.2-1.2
			c-0.2-0.2-0.6-0.4-1.2-0.3l-0.1,0l-0.1,0c-1.7,0.7-2.9,2.3-3.3,4.5c-2.5,11.4-3.6,28.9-2.8,43.6c-1.5,3.7-4.3,7-6.9,8.2
			c-1.2,0.5-2.4,0.5-3.4,0c-2-1-3.2-5.1-3-10.5c0.3-6.8,2.8-12.5,4.6-14c0.3-0.3,0.6-0.3,0.7-0.3c0.1,0,0.2,0.1,0.4,0.4
			c0.8,1.3,1.2,5.3-0.3,9.4l0,0l0,0c0,0.2-0.1,0.6,0.1,1c0.3,0.4,0.7,0.4,1.2,0.4h0.1c2.2-0.1,4.5-2.7,4.5-6.9c0-3-1.7-5.8-4.4-7.5
			c-1.5-1-3.3-1-5-0.2c-1.4,0.7-2.6,1.9-3.7,3.5c-1.8,2.3-4.5,6-4.7,6.2c-0.1,0.1-1,1-1.1,1.2c-0.9-3.7-2.6-6.6-4.7-8
			c-0.9-0.6-1.9-0.9-2.8-0.8c-1.2-1.2-2.5-1.1-3.4-0.7l0,0c-3.1,1.7-6.2,7.6-6.9,13.4c-1.5,12.3,4.7,15.8,7.4,16.7
			c2.3,0.8,4.7,0.4,6.6-1c2.9-2.3,4.5-6.8,4.5-12.7c0-0.9,0-1.8-0.1-2.7c0.6-0.7,1.2-1.3,1.8-2.1c-0.1,0.8-0.2,1.5-0.3,2.4
			c-1.1,12.5,4.7,16,8.3,17c2.7,0.7,5.3,0.4,7.5-0.9c1.4-0.9,2.6-2.1,3.6-3.6c0,0.1,0,0.1,0,0.2c0.4,4,2.4,5.3,4.2,6l0.1,0l0.1,0
			c0.2,0,1,0.1,1.4-0.3c0.3-0.3,0.4-0.7,0.3-1.2c-2.6-16.3,3.3-28.4,7.1-30.1c0.8-0.4,1.2-0.1,1.4,0.2c0.7,0.9,0.9,2.9,0.5,5.1
			c-0.3,1.6-1.9,7.1-7.8,10.2l0,0l0,0c-0.9,0.6-1.3,1.5-1.1,2.5c0.8,6.7,4.5,11.6,9.4,12.5c2.6,0.5,5,0,7-1.6
			c1.1-0.9,2-2.1,2.7-3.5c1.7,2.5,3.7,4.1,6,4.6c2.4,0.5,4.9-0.2,6.9-2.1C349.1,215.8,349.2,211.1,346.3,204.5z M278.9,193.9
			c1,0.2,2.2,2.6,2.8,6.3c-1.5-0.8-2.3-2.7-2.5-3.3c-0.3-0.9-0.4-1.7-0.4-2.2C278.8,194.3,278.8,194,278.9,193.9z M282.1,205.3
			c0,5.7-1.6,9.6-3.2,10.9c-0.5,0.4-0.9,0.5-1.3,0.4h0c-0.8-0.2-3.3-2.9-3.3-9c0-0.7,0-1.4,0.1-2.2c0.2-2.1,0.6-4.1,1.1-5.8
			C276.5,202.5,278.7,204.9,282.1,205.3L282.1,205.3z M343.4,216c-0.4,0.4-1.1,0.4-1.5,0.3c-2-0.3-5.1-2.5-7.1-6.6
			c0-0.1,0-0.1,0-0.2c0-0.1,0-0.1,0-0.2c0.1-0.5,0.3-1.1,0.3-1.1c0.9-3.7,1.8-7.7,3.2-11c0.2,2.5,1.1,5.6,2.7,9.2
			c0,0,0.3,0.6,0.3,0.6C342.6,210.3,344.5,214.7,343.4,216z"/>
	</g>
</svg>
